<svg width="803" height="803" viewBox="0 0 803 803" fill="none" xmlns="http://www.w3.org/2000/svg">
<path fill-rule="evenodd" clip-rule="evenodd" d="M443.993 166.506C587.864 166.506 704.489 283.131 704.489 427.002C704.489 570.874 587.864 687.499 443.993 687.499C300.121 687.499 183.496 570.874 183.496 427.002C183.496 283.131 300.121 166.506 443.993 166.506Z" fill="#9C78FF"/>
<path d="M453.111 275.835H434.744V454.855H453.111V275.835Z" fill="white"/>
<path d="M411.71 237.063H391.693V432.017H411.71V237.063Z" fill="#1A1A18"/>
<path d="M511.792 436.488H434.744V454.855H511.792V436.488Z" fill="white"/>
<path d="M475.602 412.022H391.693V432.039H475.602V412.022Z" fill="#1A1A18"/>
<path d="M453.133 169.894H434.875V226.535H453.133V169.894Z" fill="white"/>
<path d="M411.685 121.674H391.82V183.352H411.685V121.674Z" fill="#1A1A18"/>
<path d="M248.668 412.739H192.027V430.997H248.668V412.739Z" fill="white"/>
<path d="M189.055 386.144H127.377V406.009H189.055V386.144Z" fill="#1A1A18"/>
<path d="M269.455 240.179L256.443 253.294L297.146 293.676L310.158 280.56L269.455 240.179Z" fill="white"/>
<path d="M211.695 198.344L197.521 212.631L241.846 256.606L256.02 242.319L211.695 198.344Z" fill="#1A1A18"/>
<path d="M295.865 557.837L254.744 597.794L267.619 611.045L308.741 571.087L295.865 557.837Z" fill="white"/>
<path d="M240.458 544.071L195.678 587.584L209.703 602.017L254.483 558.505L240.458 544.071Z" fill="#1A1A18"/>
<path d="M453.133 617.18H434.875V673.822H453.133V617.18Z" fill="white"/>
<path d="M411.685 608.781H391.82V670.458H411.685V608.781Z" fill="#1A1A18"/>
<path d="M695.954 412.739H639.312V430.997H695.954V412.739Z" fill="white"/>
<path d="M676.156 386.144H614.479V406.009H676.156V386.144Z" fill="#1A1A18"/>
<path d="M590.819 559.663L577.805 572.777L618.502 613.164L631.516 600.051L590.819 559.663Z" fill="white"/>
<path d="M561.664 546.111L547.488 560.396L591.806 604.377L605.983 590.092L561.664 546.111Z" fill="#1A1A18"/>
<path d="M620.58 242.226L579.459 282.183L592.334 295.433L633.456 255.476L620.58 242.226Z" fill="white"/>
<path d="M594.061 200.432L549.281 243.945L563.306 258.378L608.087 214.866L594.061 200.432Z" fill="#1A1A18"/>
<path d="M602.311 602.26C713.095 491.476 713.095 311.859 602.311 201.076C491.527 90.2916 311.911 90.2916 201.127 201.076C90.3433 311.859 90.3431 491.476 201.127 602.259C311.911 713.043 491.527 713.043 602.311 602.26Z" stroke="#1A1A18" stroke-width="8.68394" stroke-miterlimit="22.9256"/>
</svg>
