<svg width="40" height="23" viewBox="0 0 40 23" fill="none" xmlns="http://www.w3.org/2000/svg">
<path d="M0.00938416 15H4.43687L9.94867 7H5.52119L0.00938416 15Z" fill="#9C78FF"/>
<path d="M35.5709 15L30.0605 23H34.488L39.9998 15H35.5709Z" fill="#9C78FF"/>
<path d="M4.42908 15L9.93945 7.00001L5.51196 7.00001L0.0001688 15L4.42908 15Z" fill="#9C78FF"/>
<path d="M34.4882 7H30.0607L35.571 15H40L34.4882 7Z" fill="#201C2D"/>
<path d="M5.51196 23L9.93945 23L4.42908 15L0.000169446 15L5.51196 23Z" fill="#201C2D"/>
<path d="M26.512 14.968C26.512 16.024 26.352 17 26.032 17.896C25.728 18.776 25.296 19.544 24.736 20.2C24.192 20.84 23.544 21.344 22.792 21.712C22.056 22.064 21.248 22.24 20.368 22.24C19.488 22.24 18.672 22.064 17.92 21.712C17.168 21.344 16.52 20.84 15.976 20.2C15.432 19.544 15 18.776 14.68 17.896C14.376 17 14.224 16.024 14.224 14.968C14.224 13.912 14.376 12.944 14.68 12.064C15 11.168 15.432 10.4 15.976 9.76C16.52 9.104 17.168 8.592 17.92 8.224C18.672 7.856 19.488 7.672 20.368 7.672C21.248 7.672 22.056 7.856 22.792 8.224C23.544 8.592 24.192 9.104 24.736 9.76C25.296 10.4 25.728 11.168 26.032 12.064C26.352 12.944 26.512 13.912 26.512 14.968ZM23.824 14.968C23.824 14.248 23.736 13.592 23.56 13C23.4 12.408 23.16 11.896 22.84 11.464C22.536 11.032 22.168 10.704 21.736 10.48C21.32 10.24 20.864 10.12 20.368 10.12C19.84 10.12 19.36 10.24 18.928 10.48C18.512 10.704 18.144 11.032 17.824 11.464C17.52 11.896 17.28 12.408 17.104 13C16.944 13.592 16.864 14.248 16.864 14.968C16.864 15.688 16.944 16.344 17.104 16.936C17.28 17.528 17.52 18.04 17.824 18.472C18.144 18.888 18.512 19.216 18.928 19.456C19.36 19.68 19.84 19.792 20.368 19.792C20.864 19.792 21.32 19.68 21.736 19.456C22.168 19.216 22.536 18.888 22.84 18.472C23.16 18.04 23.4 17.528 23.56 16.936C23.736 16.344 23.824 15.688 23.824 14.968Z" fill="#201C2D"/>
</svg>
