<svg width="40" height="28" viewBox="0 0 40 28" fill="none" xmlns="http://www.w3.org/2000/svg">
<path d="M0.00938416 14H4.43687L9.94867 6H5.52119L0.00938416 14Z" fill="#9C78FF"/>
<path d="M35.5709 14L30.0605 22H34.488L39.9998 14H35.5709Z" fill="#9C78FF"/>
<path d="M4.42908 14L9.93945 6.00001L5.51196 6.00001L0.000168752 14L4.42908 14Z" fill="#9C78FF"/>
<path d="M34.4882 6H30.0607L35.571 14H40L34.4882 6Z" fill="#201C2D"/>
<path d="M5.51196 22L9.93945 22L4.42908 14L0.000169397 14L5.51196 22Z" fill="#201C2D"/>
<path d="M26.512 14.968C26.512 16.376 26.24 17.632 25.696 18.736C25.168 19.824 24.44 20.68 23.512 21.304C22.6 21.928 21.552 22.24 20.368 22.24C19.2 22.24 18.152 21.928 17.224 21.304C16.296 20.68 15.56 19.824 15.016 18.736C14.488 17.632 14.224 16.376 14.224 14.968C14.224 13.56 14.488 12.312 15.016 11.224C15.56 10.12 16.296 9.256 17.224 8.632C18.152 7.992 19.2 7.672 20.368 7.672C21.552 7.672 22.6 7.992 23.512 8.632C24.44 9.256 25.168 10.12 25.696 11.224C26.24 12.312 26.512 13.56 26.512 14.968ZM23.824 14.968C23.824 14.008 23.68 13.168 23.392 12.448C23.104 11.712 22.696 11.144 22.168 10.744C21.64 10.328 21.04 10.12 20.368 10.12C19.68 10.12 19.072 10.328 18.544 10.744C18.016 11.144 17.6 11.712 17.296 12.448C17.008 13.168 16.864 14.008 16.864 14.968C16.864 15.928 17.008 16.768 17.296 17.488C17.6 18.208 18.016 18.776 18.544 19.192C19.072 19.592 19.68 19.792 20.368 19.792C21.04 19.792 21.632 19.592 22.144 19.192C22.672 18.776 23.08 18.208 23.368 17.488C23.672 16.768 23.824 15.928 23.824 14.968Z" fill="black"/>
</svg>
