<svg width="41" height="16" viewBox="0 0 41 16" fill="none" xmlns="http://www.w3.org/2000/svg">
<path d="M0.164511 8.33796L4.66239 8.24508L10.107 0.631066L5.6091 0.723944L0.164511 8.33796Z" fill="#9C78FF"/>
<path d="M36.292 7.59168L30.8489 15.2057L35.3467 15.1128L40.7913 7.49877L36.292 7.59168Z" fill="#9C78FF"/>
<path d="M4.6547 8.24459L10.0978 0.630603L5.59996 0.723481L0.155379 8.3375L4.6547 8.24459Z" fill="#9C78FF"/>
<path d="M35.0371 0.116594L30.5392 0.209473L36.292 7.59226L40.7914 7.49936L35.0371 0.116594Z" fill="#201C2D"/>
<path d="M5.90909 15.7207L10.407 15.6278L4.65416 8.24502L0.154839 8.33792L5.90909 15.7207Z" fill="#201C2D"/>
<path fill-rule="evenodd" clip-rule="evenodd" d="M23.8514 3.82786L20.4257 3.90183L20.4324 4.38326C21.1253 4.39794 21.8735 4.35672 22.5705 4.34233C23.2822 4.32763 23.9954 4.31291 24.707 4.29821C25.4605 4.28265 25.9313 4.25036 26.4608 4.64208C27.81 5.64339 27.7739 8.42727 27.3016 9.71262C27.106 10.2465 26.8097 10.6714 26.3805 10.9186C26.0998 11.0807 25.8732 11.132 25.5085 11.1396C25.1858 11.1462 24.749 11.1795 24.4386 11.1553C24.3333 10.0445 24.5975 8.9229 23.929 8.13462C23.2507 7.33849 22.3808 7.503 21.1076 7.52929C20.5267 7.54129 19.9474 7.55325 19.3665 7.56525C18.792 7.57711 18.3381 7.56072 17.8907 7.31709C16.9405 6.79877 17.0283 5.97072 17.0018 4.6844C16.9898 4.10483 16.9779 3.52687 16.9659 2.9473C16.9522 2.28562 17.0107 1.9913 17.3712 1.62308C17.953 1.02803 18.9184 0.798722 19.9906 0.733096C20.9838 0.672323 22.2328 0.728643 23.0191 1.12472C23.9587 1.59977 23.8247 2.14533 23.8411 2.93741C23.8451 3.21274 23.8717 3.5633 23.8514 3.82786Z" fill="black"/>
<path fill-rule="evenodd" clip-rule="evenodd" d="M17.0683 11.9098L20.492 11.8343L20.4804 11.3501C19.0491 11.3732 17.6229 11.4091 16.1966 11.4386C15.4302 11.4544 14.958 11.4899 14.427 11.1001C13.0765 10.111 13.1134 7.28759 13.5768 6.04373C14.1795 4.43008 15.1534 4.61275 16.449 4.58599C16.4983 5.72432 16.3206 6.81264 16.957 7.61217C17.5734 8.38637 18.5841 8.23996 19.7974 8.2149C20.3783 8.20291 20.9575 8.19095 21.5384 8.17895C22.1241 8.16686 22.5408 8.17917 22.9978 8.4256C23.9462 8.93707 23.8574 9.79664 23.8837 11.0674C23.8956 11.6465 23.9075 12.224 23.9195 12.803C23.9333 13.4706 23.892 13.7402 23.5287 14.1211C22.4715 15.2227 19.1842 15.2584 17.8826 14.6013C17.5596 14.4374 17.1429 14.1145 17.0979 13.6536C17.0716 13.3982 17.0321 12.1101 17.0683 11.9098Z" fill="#9C78FF"/>
</svg>
