<svg width="68" height="51" viewBox="0 0 68 51" fill="none" xmlns="http://www.w3.org/2000/svg">
<path d="M48.427 0.802185L26.7559 6.20833L5.08464 11.6146L8.30732 44.9727L33.6819 38.6426L59.0565 32.3126L48.427 0.802185Z" fill="white"/>
<path d="M59.2282 33.1174L8.47916 45.7775L7.54943 45.0603L4.32684 11.7022L4.91329 10.8124L48.2557 0L49.1436 0.521978L59.7731 32.0324L59.2282 33.1174ZM8.97703 43.9607L58.044 31.7202L47.9407 1.77114L5.91452 12.2552L8.97703 43.9607Z" fill="black"/>
<path d="M46.9567 5.20474L45.9285 4.59943L8.71643 13.8826L8.03766 14.9137L10.4587 39.9665L11.5348 40.7964L54.3082 30.1259L54.939 28.8702L46.9567 5.20474Z" fill="black"/>
<path d="M66.632 30.4509L33.6874 38.6694L0.745255 46.8873L1.24024 49.2057L34.1824 40.9876L67.1271 32.7691L66.632 30.4509Z" fill="white"/>
<path d="M67.2984 33.5713L1.4116 50.0078L0.495077 49.3887L0 47.0705L0.572852 46.0798L66.4596 29.6434L67.3762 30.2624L67.8711 32.5807L67.2984 33.5713ZM1.8106 48.2157L66.2106 32.15L66.0587 31.4388L1.65871 47.5044L1.8106 48.2157Z" fill="black"/>
<path d="M39.7294 36.7876L27.4936 39.84L28.1405 42.8695L40.3763 39.8171L39.7294 36.7876Z" fill="black"/>
<path d="M26.8919 15.9359L14.6313 18.9945L14.9762 20.6095L27.2367 17.551L26.8919 15.9359Z" fill="#9C78FF"/>
<path d="M27.2564 19.7426L14.9959 22.8013L15.3408 24.4163L27.6014 21.3577L27.2564 19.7426Z" fill="#9C78FF"/>
<path d="M44.4289 19.6748L18.8342 26.0598L19.1791 27.6748L44.7737 21.2898L44.4289 19.6748Z" fill="#9C78FF"/>
<path d="M45.3676 24.0706L19.7728 30.4556L20.1178 32.0706L45.7125 25.6856L45.3676 24.0706Z" fill="#9C78FF"/>
</svg>
