<svg width="40" height="24" viewBox="0 0 40 24" fill="none" xmlns="http://www.w3.org/2000/svg">
<path d="M0.00952911 14.7826H4.43706L9.9489 7H5.52138L0.00952911 14.7826Z" fill="#9C78FF"/>
<path d="M35.571 14.7832L30.0606 22.5658H34.4881L40 14.7832H35.571Z" fill="#9C78FF"/>
<path d="M4.42911 14.7832L9.93953 7.00057L5.512 7.00057L0.000161171 14.7832L4.42911 14.7832Z" fill="#9C78FF"/>
<path d="M34.4881 7H30.0606L35.571 14.7826H40L34.4881 7Z" fill="#201C2D"/>
<path d="M5.512 22.5654L9.93953 22.5654L4.42911 14.7828L0.000161816 14.7828L5.512 22.5654Z" fill="#201C2D"/>
<path d="M25.728 19.624V22H16.56V19.624H19.968V11.248C19.824 11.44 19.6 11.64 19.296 11.848C18.992 12.056 18.656 12.248 18.288 12.424C17.92 12.6 17.536 12.752 17.136 12.88C16.736 12.992 16.384 13.048 16.08 13.048V10.576C16.4 10.576 16.768 10.48 17.184 10.288C17.616 10.096 18.024 9.872 18.408 9.616C18.808 9.36 19.152 9.104 19.44 8.848C19.744 8.592 19.92 8.408 19.968 8.296H22.68V19.624H25.728Z" fill="#201C2D"/>
</svg>
