<svg width="40" height="28" viewBox="0 0 40 28" fill="none" xmlns="http://www.w3.org/2000/svg">
<path d="M0.00952911 14.7826H4.43706L9.9489 7H5.52138L0.00952911 14.7826Z" fill="#9C78FF"/>
<path d="M35.571 14.7832L30.0606 22.5658H34.4881L40 14.7832H35.571Z" fill="#9C78FF"/>
<path d="M4.42911 14.7832L9.93953 7.00057L5.512 7.00057L0.000161293 14.7832L4.42911 14.7832Z" fill="#9C78FF"/>
<path d="M34.4881 7H30.0606L35.571 14.7826H40L34.4881 7Z" fill="#201C2D"/>
<path d="M5.512 22.5654L9.93953 22.5654L4.42911 14.7828L0.000161938 14.7828L5.512 22.5654Z" fill="#201C2D"/>
<path d="M25.728 19.624V22H16.56V19.624H19.968V11.248C19.824 11.44 19.6 11.64 19.296 11.848C18.992 12.056 18.648 12.256 18.264 12.448C17.896 12.624 17.52 12.768 17.136 12.88C16.752 12.992 16.4 13.048 16.08 13.048V10.576C16.4 10.576 16.768 10.48 17.184 10.288C17.6 10.096 18.008 9.872 18.408 9.616C18.824 9.344 19.176 9.088 19.464 8.848C19.752 8.592 19.92 8.408 19.968 8.296H22.68V19.624H25.728Z" fill="#201C2D"/>
</svg>
